<?xml version="1.0" encoding="utf-8"?>
<!-- Generator: Adobe Illustrator 22.0.1, SVG Export Plug-In . SVG Version: 6.00 Build 0)  -->
<svg version="1.1" id="Ebene_2" xmlns="http://www.w3.org/2000/svg" xmlns:xlink="http://www.w3.org/1999/xlink" x="0px" y="0px"
	 viewBox="0 0 348.8 347.9" enable-background="new 0 0 348.8 347.9" xml:space="preserve">
<circle fill="#FFFFFF" cx="174.8" cy="176.2" r="162.9"/>
<g>
	<path fill="#BFA084" d="M252,177.2c-4,0.7-9,0.6-15-0.7l-0.3-0.1c-1.1-0.4-2.4-1.1-3.6-1.9l-1.4,7.3l-13.5,7.2l3.8-9l1.7-13.1
		l1.6-3.3c-0.2-1.7-0.1-3.6,0.6-5.6c0.2-0.6,0.7-0.9,1.2-1.1l-1.3-3.8l2.5-5.6l7.2-4h5c-5.8-8.7-13.6-13.4-19.9-15.9l-1,4.3
		l-7.9,5.7l-12.2,2.3l-10,4.3l-9.2,8.9l-7.6,3.9l-3,13.2l-2.2,11.5l2.1,5.4c0,0,0,0,0,0l0.3-0.2l0.3-0.1c1.7-0.5,16.9-4.8,22.2,1.4
		c2.4,2.8,2.4,7-0.1,12.6L192,201c-0.1,0.2-12.7,16.9-15.3,30.1c21.6-12.6,48.4-22.5,81.1-25C260.6,190.9,254,180.1,252,177.2z
		 M195.5,153.3c-0.2,0.3-3.1,4-7,6.7l2.6,3c0.3,0.4,0.3,1-0.1,1.3c-0.2,0.2-0.4,0.2-0.6,0.2c-0.3,0-0.5-0.1-0.7-0.3l-2.8-3.2
		c-1.5,0.9-3.1,1.6-4.7,1.9l-1.1,4.1c-0.1,0.4-0.5,0.7-0.9,0.7c-0.1,0-0.2,0-0.2,0c-0.5-0.1-0.8-0.6-0.6-1.1l1-3.6
		c-0.1,0-0.1,0-0.2,0c-1.4-0.2-2.7-0.8-3.8-1.8l-3.1,3.1c-0.2,0.2-0.4,0.3-0.7,0.3s-0.5-0.1-0.7-0.3c-0.4-0.4-0.4-0.9,0-1.3l3.2-3.2
		c-0.6-0.8-1.1-1.6-1.5-2.6c-0.1-0.2,0-0.5,0.2-0.6c0.2-0.1,0.4-0.1,0.6,0.1c0.1,0.1,5.7,6.1,20.5-4c0.2-0.1,0.4-0.1,0.6,0.1
		C195.6,152.9,195.6,153.1,195.5,153.3z"/>
	<path fill="#8C6B4F" d="M135.3,175.7c-0.3,0.6-1.1,2.4-1.4,4.6c3.4,1.8,8.8-3.9,8.8-3.9l-5.3-2.8
		C136.3,174.7,135.6,175.4,135.3,175.7z"/>
	<path fill="#402718" d="M199.5,90.2c-0.8,0-82.5,3.5-121.9,52.7c-0.3,0.4-0.3,0.9,0.1,1.3c0.2,0.2,0.4,0.2,0.6,0.2
		c0.2,0,0.5-0.1,0.6-0.3c0.4-0.4,40-37.5,120.7-52.1c0.5-0.1,0.8-0.5,0.8-1C200.4,90.5,200,90.1,199.5,90.2z"/>
	<path fill="#402718" d="M109.6,236.1c-0.4-0.3-37.9-26.8-32.2-60.8c0.1-0.5-0.2-0.9-0.7-1c-19.3-5.5-39.9-13.5-39.8-16.6
		c0-0.3,0.8-1,3.6-1.6c0.1,0,0.1,0,0.2-0.1c0.1,0,10.5-4.8,29.9-7.7c0.5-0.1,0.8-0.5,0.8-1c0-0.5-0.4-0.9-0.9-0.9
		c-4.3,0-42.6,0.5-45.3,9.8c-0.8,2.8,1.2,5.7,6.2,9c0.3,0.2,7.3,5.8,38.2,15.2c-0.1,5.4,1.1,38.8,39.1,57.2c0.1,0.1,0.3,0.1,0.4,0.1
		c0.3,0,0.6-0.2,0.8-0.5C110.1,236.9,109.9,236.4,109.6,236.1z"/>
	<g>
		<path fill="#BFA084" d="M153.6,168.5l7-1.7l5.5-4.3l1.2-4.8l9.2-8.7l10.6-9.7l12.5-6.3l5.3-5.8l-0.1-0.1c-0.6-0.4-1.3-0.8-1.8-1.4
			c-16.2,4.5-39,23.4-53.5,36.6C150.8,163.1,152.6,164.7,153.6,168.5z"/>
		<path fill="#BFA084" d="M199.7,122.9L199.7,122.9l-0.4,0.2C199.4,123,199.5,123,199.7,122.9z"/>
	</g>
	<path fill="#8C6B4F" d="M123.3,224.7l3.2,4.8h5l-0.7-2.9l2-1.7C129.6,224.5,126.5,224.4,123.3,224.7z"/>
	<path fill="#402718" d="M195.4,152.7c-0.2-0.2-0.4-0.2-0.6-0.1c-14.8,10.1-20.4,4.1-20.5,4c-0.2-0.2-0.4-0.2-0.6-0.1
		c-0.2,0.1-0.3,0.4-0.2,0.6c0.5,1,1,1.9,1.5,2.6L172,163c-0.4,0.4-0.4,0.9,0,1.3c0.2,0.2,0.4,0.3,0.7,0.3s0.5-0.1,0.7-0.3l3.1-3.1
		c1.1,1,2.4,1.6,3.8,1.8c0.1,0,0.1,0,0.2,0l-1,3.6c-0.1,0.5,0.2,1,0.6,1.1c0.1,0,0.2,0,0.2,0c0.4,0,0.8-0.3,0.9-0.7l1.1-4.1
		c1.6-0.3,3.2-1,4.7-1.9l2.8,3.2c0.2,0.2,0.4,0.3,0.7,0.3c0.2,0,0.4-0.1,0.6-0.2c0.4-0.3,0.4-0.9,0.1-1.3l-2.6-3
		c3.8-2.8,6.8-6.5,7-6.7C195.6,153.1,195.6,152.9,195.4,152.7z"/>
	<path fill="#8C6B4F" d="M126.6,238.9l-1.5-2.6l2.7-3.1h-10.6c1.1,2.3,3.3,5.7,6.9,7.7c2.8,1.5,6,1.9,9.7,1.2l-2.6-2L126.6,238.9z"
		/>
	<path fill="#402718" d="M261.6,205.8c2.4-14.6-2.9-25.2-5.8-29.6c10.2-3.4,12.9-12,12.9-12.2l0.7-2.4H267
		c-14.5,0-19.6-13.1-19.9-13.8c-7.3-15.9-20.1-22.4-28.7-25.1c-2.5-33.7,50.4-40.9,50.4-40.9c-60.1-4.9-66.2,30.1-66.7,40.3
		c-26.8,7.5-67.7,49.2-69.6,51.2l-0.3,0.4c-0.2,0.3-3.7,6.6-1.4,13.1c1.5,4.1,4.9,7.2,10.3,9.4c-0.2,6.3,2.2,16.7,13,19.2l6.4,1.5
		l-4.7-4.6c0,0-2.3-2.4-1.9-7.4c2.7,3.1,7.3,6.8,13.2,5.1l2.6-0.7l-1.6-2.1c-0.3-0.4-6.4-9.1,3.4-17.1c4.1-1.1,14.9-3.2,18,0.3
		c1.7,2,0.6,5.6-0.6,8.5c-1.6,2.1-15.1,20.6-16.2,34.6c-2.4,1.5-4.7,3-6.9,4.5c-4.1-4.1-22.2-20.5-46-16.5l-2.8,0.5l5,7.6h-10
		l0.7,2.4c0.1,0.3,2.4,8.4,9.6,12.2c4.3,2.3,9.3,2.6,15,0.9c1.3,0.4,5.7,2,10.3,7c-29.4,25.6-42.5,52.3-42.5,52.3
		c83.6-108.7,220.7-93.4,220.7-93.4C302.2,206.1,280.9,204.7,261.6,205.8z M150.3,249.7c-6.3-7-12.5-8.3-12.8-8.4l-0.5-0.1l-0.4,0.1
		c-4.9,1.5-9.1,1.4-12.6-0.5c-3.6-1.9-5.8-5.4-6.9-7.7H134c1,0,1.8-0.8,1.8-1.8c0-1-0.8-1.8-1.8-1.8h-7.6l-3.2-4.8
		c19.6-1.9,35.1,11.3,39.4,15.4C158.3,243.3,154.2,246.5,150.3,249.7z M192,201l0.2-0.4c2.5-5.6,2.5-9.8,0.1-12.6
		c-5.4-6.1-20.5-1.9-22.2-1.4l-0.3,0.1l-0.3,0.2c-9.3,7.3-7.5,15.6-5.8,19.7c-5.3-0.5-9.1-7.1-9.2-7.2l-2.1-3.8l-1.3,4.1
		c-1.3,4.3-1.1,7.7-0.5,10.1c-6.8-4.6-5.8-14.4-5.8-14.9l0.2-1.5l-1.4-0.5c-5-1.8-8.1-4.3-9.3-7.7c-1.6-4.4,0.5-8.9,1-9.8
		c3-3.1,42.9-43.1,67.6-50c4.4,4.5,10.4,2.2,13.6,0.4c7.8,2.3,20.3,8.3,27.2,23.2c0.1,0.2,5.5,14.3,20.5,15.9
		c-2.3,3.9-9.2,11.4-26.2,7.6c-1.3-0.6-11.6-5.4-8.7-13.6c0.3-1-0.2-2-1.1-2.4c-1-0.3-2,0.2-2.4,1.1c-3.4,9.6,5.7,16.2,10.9,18.4
		l0.3,0.1c6,1.4,11,1.4,15,0.7c2.1,2.9,8.7,13.7,5.8,28.9c-32.7,2.5-59.5,12.4-81.1,25C179.3,217.9,191.8,201.2,192,201z"/>
</g>
</svg>
